<svg xmlns="http://www.w3.org/2000/svg" viewBox="0 0 900 900"><g fill="none" stroke-width="2"><path stroke="#8f8d8b" d="m395.71 410-.25-2.75" vector-effect="non-scaling-stroke"/><path stroke="#a6a4a4" d="m395.46 407.25.02-4.01q0-.49-.49-.49h-7.24q-.5 0-.5.5v3.25q0 .66-.61.41l-74.48-30.82q-.42-.18-.85 0l-96.19 39.76q-.62.25-.62.93v5.3q0 .79.73.49l95.46-39.42a2.54 2.5-44.6 0 1 1.93 0l95.58 39.41a.52.52 0 0 0 .72-.5l-.24-5.62q-.01-.41-.4-.57c-1.72-.72-12.41-4.71-12.57-5.87" vector-effect="non-scaling-stroke"/><path stroke="#363230" d="m395.46 407.25-6.02.19a.41.41 0 0 0-.15.79q3.25 1.42 6.42 1.77" vector-effect="non-scaling-stroke"/><path stroke="#8f8d8b" d="M243 444.59a.51.51 0 0 1 .51-.51l29.23-.12a.51.51 0 0 1 .51.51v31.01a.51.51 0 0 0 .5.51l7.73.16a.51.51 0 0 0 .52-.51v-64.68a.51.51 0 0 0-.52-.51l-7.73.17a.51.51 0 0 0-.5.51v24.86a.51.51 0 0 1-.51.51h-29.19a.51.51 0 0 1-.51-.51l-.05-21.72a.51.51 0 0 0-.7-.47l-7.47 2.97a.51.51 0 0 0-.32.48v58.24a.51.51 0 0 0 .51.51h7.49a.51.51 0 0 0 .51-.51l-.01-30.9" vector-effect="non-scaling-stroke"/><path stroke="#a6a4a4" d="M429.89 436.22a.39.39 0 0 1-.39-.39v-24.94a.39.39 0 0 0-.39-.39h-7.98a.39.39 0 0 0-.39.39l.02 64.72a.39.39 0 0 0 .39.39h7.96a.39.39 0 0 0 .39-.39v-31.22a.39.39 0 0 1 .39-.39h29.47a.39.39 0 0 1 .39.39v31.14a.39.39 0 0 0 .37.39l7.71.35a.39.39 0 0 0 .41-.39l.02-64.99a.39.39 0 0 0-.39-.39h-7.73a.39.39 0 0 0-.39.39v25.29a.39.39 0 0 1-.39.39l-29.47-.35" vector-effect="non-scaling-stroke"/><path stroke="#8f8d8b" d="M394.99 475.91a.31.31 0 0 0 .29-.3l.2-55.77a.31.31 0 0 0-.19-.29l-7.71-3.18a.31.31 0 0 0-.43.28l.14 59.31a.31.31 0 0 0 .32.3l7.38-.35M300.2 452.5h32.84q.6 0 .63-.6c.55-12.15-2.42-23.75-16.35-26.03-19.52-3.21-28.38 16.01-25.44 32.56 3.59 20.19 25.22 22.27 40.41 14.74q.46-.22.46-.74l-.01-7.88a.43.43 0 0 0-.7-.34c-12.59 9.83-30.71 8.55-32.44-11.06q-.06-.65.6-.65" vector-effect="non-scaling-stroke"/><path stroke="#a6a4a4" d="M502.42 425.95c-33.66-4.41-33.12 57.02.92 51.1 15.92-2.77 18.95-16.85 17.63-30.78-1.05-11.07-7.34-18.85-18.55-20.32M538.25 431.52v-3.89q0-.63-.63-.63h-6.22q-1.35 0-1.35 1.35l.01 47.3q0 .65.65.63l6.99-.17q.53-.01.53-.54c.01-4.67-.87-34.89.88-36.67 3.53-3.59 10.37-7.12 15.18-4.27 4.08 2.42 3.66 10.91 3.67 16.13q.02 12.37.05 24.8.01.5.5.51l7.09.22q.66.02.66-.64l-.04-35.4q0-.41.26-.72c3.33-4.01 11.49-8.35 16.31-4.4 2.97 2.43 2.95 7.99 2.95 11.62q-.01 14.39.02 28.76.01.58.58.59l7.25.1a.42.42 0 0 0 .43-.42q.02-16.42-.05-31.89c-.04-8.25-2.51-16.35-11.32-17.99-6.7-1.25-13.18 2.53-17.32 7.79q-.36.46-.66-.04c-6.71-11-16.96-9.77-25.51-1.74q-.91.85-.91-.39M611.46 452.5h32.57q.53 0 .59-.53c1.54-15.83-6.32-29.07-23.98-25.75q-14.66 2.75-17.58 19.56c-4.65 26.81 18 38.46 40.19 27.46q.41-.2.42-.65l.28-7.67a.6.6 0 0 0-.97-.5c-11.78 9.03-32.47 8.21-32.12-11.33q.01-.59.6-.59M665 446.44c-4.94-1.3-8.31-5.62-5.22-10.08 5.15-7.44 17.8-1.66 23.65 1.48q.51.27.49-.31l-.24-7.64q-.01-.41-.38-.59c-9.18-4.54-26.42-5.83-31.46 5.21-4.07 8.92.64 17.76 10.39 19.88 4.75 1.03 14.3 1.76 15.02 8.02.57 4.9-3.17 7.1-7.57 7.64-7.83.97-12.44-2.03-18.87-5.87q-.56-.33-.56.32v8.05q0 .49.43.71c11.21 5.81 32.6 6.89 34.73-9.51 1.81-13.9-10.9-14.82-20.41-17.31" vector-effect="non-scaling-stroke"/><path stroke="#8f8d8b" d="M359.02 462.7a.33.33 0 0 1-.62 0l-13.07-35.48a.33.33 0 0 0-.31-.22h-8.16a.33.33 0 0 0-.31.45l17.61 46.18a.33.33 0 0 1 0 .24l-8.53 19.93a.33.33 0 0 0 .3.46l8.1-.01a.33.33 0 0 0 .3-.21l26.16-66.59a.33.33 0 0 0-.3-.45h-7.86a.33.33 0 0 0-.31.22l-13 35.48" vector-effect="non-scaling-stroke"/><path stroke="#a6a4a4" d="m295.15 506.27.15-7.82q.01-.62-.6-.71l-1.73-.25q-.7-.11-.7.61l-.06 25.24q0 .56.56.59l1.85.09q.61.03.61-.58l.03-12.75q0-.56.39-.97 2.58-2.71 6.39-1.77a2.09 2.08-83.7 0 1 1.59 1.99l.18 13.47q.01.59.6.59h1.8q.62 0 .61-.62c-.17-6.07 2.8-25.26-11.15-16.81q-.53.33-.52-.3M451.68 515.31l-5.11-5.11q-.39-.4.08-.7c12.78-8.26-5.57-16.75-8.26-6.82q-1.04 3.82 2.62 6.57.49.37-.01.72c-11.56 8.04 2.83 21.04 11.14 10.44q.39-.5.7.05 2.05 3.63 6.13 3.62a.53.53 0 0 0 .37-.91l-4.78-4.72q-.37-.36-.27-.87l1.62-8.11q.18-.88-.72-.88h-1.8q-.76 0-.78.76l-.15 5.65q-.03 1.05-.78.31M476.31 504.54c3.03-5.14 9.71-3.87 13.38-.31q.71.69.62-.3l-.26-2.87q-.05-.59-.57-.88-2.44-1.39-5.22-1.68c-11.05-1.16-14.71 8.49-12.54 17.51 2.95 12.26 21.32 8.91 18.16 2.91q-.25-.48-.66-.14c-11.29 9.04-18.22-5.21-12.91-14.24M621.268 499.426a.91.91 0 0 0-.939-.881l-1.659.052a.91.91 0 0 0-.88.938l.043 1.38a.91.91 0 0 0 .938.88l1.659-.052a.91.91 0 0 0 .88-.938l-.042-1.38M246.52 516.75h8.68q.54 0 .7.52l1.87 6.01q.23.74 1.01.73l2.06-.03q.67-.01.45-.64l-8.08-23.75q-.16-.45-.6-.64c-2.49-1.03-3.72-.19-4.55 2.26q-3.7 10.89-7.36 21.87a.65.64-71 0 0 .39.81c3.3 1.22 4.11-4.48 4.74-6.63q.15-.51.69-.51M314.803 499.44a.67.67 0 0 0-.651-.69l-2.16-.06a.67.67 0 0 0-.688.651l-.047 1.68a.67.67 0 0 0 .651.688l2.16.06a.67.67 0 0 0 .688-.65l.047-1.68M323.27 507.82l4.53-.36a1.15 1.15 0 0 0 1.02-1.46c-.47-1.66-3.73-.9-5.64-1.08q-.43-.04-.43-.47v-4.37q0-.67-.67-.62l-1.86.15q-.59.05-.57.65l.14 3.96q.03.78-.76.78h-.78q-.75 0-.75.75v1.05q0 .57.55.7l1.24.31q.44.11.45.57c.04 3.91-.72 10.65.96 13.66 1.83 3.27 10.15 2.56 7.67-.58q-.3-.37-.75-.22-2.18.74-4.16-.55-.49-.32-.51-.91l-.28-11.29q-.02-.62.6-.67M368.7 509.3a1.61 1.6-82.9 0 1 2.02-1.58q2.66.7 3.93-1.12a1.02 1.02 0 0 0-.83-1.6h-4.57q-.5 0-.5-.5v-4.56q0-.58-.57-.5l-2.09.29q-.59.08-.59.68v3.74q0 .43-.4.58l-1.48.56q-.62.23-.41.85.5 1.48 1.94 1.81.49.11.46.62c-.29 5.28-2.05 18.72 8.36 15.21q.53-.18.53-.74v-1.35q0-.95-.88-.58-2.45 1.02-4.33-.63-.42-.36-.43-.92l-.16-10.26M550.58 507.69l5.07-.23q.51-.02.46-.53l-.14-1.35q-.06-.58-.64-.58h-4.88q-.55 0-.52-.55l.27-4.34q.05-.71-.66-.6l-1.93.3q-.71.11-.67.84l.24 3.7q.04.58-.54.62l-1.42.11q-.58.05-.47.62l.31 1.53q.11.56.68.53l.96-.05q.46-.02.44.44c-.18 3.55-.81 11.62 1.28 14.37 1.31 1.73 7.45 3.14 7.81-.29q.09-.92-.83-.91l-3.55.03a1.54 1.54 0 0 1-1.56-1.49l-.38-11.44q-.03-.7.67-.73M610.17 507.83l4.58-.32q.5-.04.68-.52l.36-.98q.29-.77-.54-.81l-5.35-.28q-.5-.02-.46-.52l.35-3.97q.06-.68-.62-.68h-2.03q-.68 0-.66.68l.11 3.6a.83.82-11.4 0 1-.54.8c-2.91 1.06-1.89 3.15.13 2.95q.53-.06.49.48c-.4 5.39-2.03 19.08 8.31 15.46q.52-.18.52-.73v-1.45q0-.64-.6-.41-2.81 1.11-4.74-.86-.39-.4-.39-.95l-.06-10.99q0-.47.46-.5" vector-effect="non-scaling-stroke"/><path stroke="#a6a4a4" d="M333.57 514.75h11.64a.95.95 0 0 0 .95-.92c.16-5.1-2.19-9.32-7.56-9.33-13.65-.03-11.5 26.4 6.56 18.49q.44-.19.47-.66l.16-1.99a.64.64 0 0 0-1-.59c-4.86 3.22-11.25 2.37-11.75-4.43q-.04-.57.53-.57M411.2 514.75h12.02q.38 0 .43-.38c1.12-10.01-10.9-13.8-14.88-5.35-4.58 9.72 3.22 18.74 13.42 14.15 1.52-.69 1.66-1.84 1.22-3.29q-.18-.6-.69-.24c-4.69 3.25-11.66 2.59-12.09-4.29q-.04-.6.57-.6M499.967 524.498a10.06 8.57 91.1 0 0 8.761-9.894 10.06 8.57 91.1 0 0-8.375-10.222 10.06 8.57 91.1 0 0-8.761 9.893 10.06 8.57 91.1 0 0 8.375 10.223M515.15 506.2q-.69-1.93-2.9-1.04-.43.18-.43.64l-.1 17.35q0 .68.67.73l1.94.16q.67.05.67-.62v-12.9q0-.44.3-.76c1.94-2.08 7.6-3.78 8.03.68q.68 6.92.27 12.9-.05.66.61.66h1.84q.69 0 .69-.68.03-5.79.01-11.57c-.02-6.53-5.58-9.6-10.74-5.32q-.6.5-.86-.23M633.055 524.62a10.13 8.51 89.8 0 0 8.475-10.16 10.13 8.51 89.8 0 0-8.545-10.1 10.13 8.51 89.8 0 0-8.475 10.16 10.13 8.51 89.8 0 0 8.545 10.1M288.58 519.66c-14 10.1-13.87-20.58.21-10.42q.59.43.52-.29l-.22-2.27q-.05-.56-.57-.81c-17.66-8.4-18.44 24.47-1.11 17.65 1.68-.66 1.99-1.98 1.78-3.6q-.09-.64-.61-.26" vector-effect="non-scaling-stroke"/><path stroke="#a6a4a4" d="M361.63 519.68c-3.6 3.23-9.1 2.45-9.96-2.88-1.11-6.79 3.4-13.06 10.17-7.42q.87.73.72-.4l-.32-2.44q-.08-.61-.65-.84c-16.34-6.58-18.78 20.6-2.65 18.43 2.36-.32 4.47-1.46 3.36-4.3q-.22-.56-.67-.15M539.56 520.98q-4.81 1.72-8.76-1.46-.55-.44-.55.27v2.24q0 .62.55.9 5.88 3 10.7-.22c2.32-1.55 2.87-4.43 1.56-6.77-1.38-2.45-4.96-2.86-7.57-3.65-2.69-.81-2.71-3.97.06-4.68q3.57-.93 6.87 1.41a.4.4 0 0 0 .62-.22c1.5-5.47-11.01-5.94-12.74.51q-.71 2.67 1.41 4.65c2.69 2.49 8.7 1.18 8.88 5.5a1.54 1.54 0 0 1-1.03 1.52M597.86 507.4q2.55-.01 4.77 1.64.53.39.66-.25c.45-2.09-.77-3.27-2.78-3.73-16.53-3.8-14.32 25.11 1.54 18.34 1.61-.69 1.87-2.08 1.15-3.54q-.25-.51-.69-.15c-10.57 8.51-14.32-12.26-4.65-12.31M648 506.23q-.78-1.77-2.78-1.1-.47.16-.47.65v17.58q0 .54.54.57l1.81.09a.63.63 0 0 0 .67-.63l.06-12.65q0-.61.42-1.05 2.78-2.94 6.56-1.76.52.16.78.64c1.75 3.28.91 10.83.91 14.7q.01.72.72.72h1.58q.71 0 .71-.72.04-6.61-.22-13.19c-.24-6.09-6.53-6.67-10.44-3.63q-.56.43-.85-.22M266.71 506.94l.29-1.17q.24-.95-.73-.84l-2.11.24q-.58.07-.57.66l.23 17.71q0 .48.48.47l1.81-.03q.64-.01.64-.65v-12.29q0-.5.38-.83 2.55-2.25 5.96-1.91.43.04.44-.39l.05-2.38a.45.45 0 0 0-.46-.46q-3.32.06-5.66 2.3-1.12 1.07-.75-.43M314.7 505.74a.69.69 0 0 0-.69-.69h-1.82a.69.69 0 0 0-.69.69v17.58a.69.69 0 0 0 .69.69h1.82a.69.69 0 0 0 .69-.69v-17.58M388.75 522.49v.84q0 .63.64.65l1.67.03q.51.01.51-.5l.09-17.83q0-.68-.67-.68h-1.77q-.52 0-.52.52l.07 12.85q.01.46-.32.79c-2.16 2.2-7.5 3.97-8.04-.91q-.69-6.23-.32-12.43.03-.44-.37-.64c-2.22-1.08-2.98.21-2.88 2.27.19 4.01-.6 11.43 1.24 14.44 2.26 3.68 6.81 2.71 9.91.24q.76-.61.76.36M399.21 507.23l.35-1.55q.17-.8-.65-.73l-1.76.18q-.65.06-.65.71v17.5q0 .65.65.65h1.7q.65 0 .65-.65V511q0-.56.42-.92 2.45-2.09 5.83-1.75.66.07.68-.59l.09-2.1q.03-.7-.67-.66-3.49.19-5.84 2.67-1.15 1.21-.8-.42M561.5 507.03q-.14-.65.39-1.04.79-.59-.19-.72l-2.49-.32q-.69-.09-.69.6l-.06 17.81q0 .64.64.64h1.73q.64 0 .64-.64l.1-12.28q0-.65.5-1.06 2.38-1.96 5.48-1.47.8.13.8-.68v-2.21q0-.71-.72-.66-3.05.24-5.21 2.31-.72.69-.92-.28" vector-effect="non-scaling-stroke"/><path stroke="#a6a4a4" d="M582.5 522.25v.99q0 .68.67.7l1.66.06q.67.03.67-.64v-17.47q0-.62-.61-.7l-1.7-.23q-.69-.09-.69.61v12.94q0 .41-.29.7-2.73 2.78-6.52 1.81-.52-.13-.75-.61c-1.72-3.72-1.02-10.53-1.11-14.77q-.01-.64-.65-.64h-1.69q-.62 0-.64.61-.4 10.16.22 13.57c1.03 5.64 7.2 6.96 10.78 2.83q.65-.76.65.24M621.275 505.773a.76.76 0 0 0-.758-.762l-1.68-.002a.76.76 0 0 0-.762.758l-.03 17.46a.76.76 0 0 0 .758.762l1.68.002a.76.76 0 0 0 .762-.758l.03-17.46" vector-effect="non-scaling-stroke"/><path stroke="#8f8d8b" d="m300.4 446.11 25.16-.22a.26.26 0 0 0 .26-.26l-.01-.69a12.57 12.44 89.5 0 0-12.55-12.46h-.8a12.57 12.44 89.5 0 0-12.33 12.68l.01.69a.26.26 0 0 0 .26.26" vector-effect="non-scaling-stroke"/><path stroke="#a6a4a4" d="M503.01 433.25c-17.88-3.85-20.34 21.43-13.78 31.53 5.39 8.3 18.81 7.06 22.02-2.54 2.68-8.02 3.25-26.52-8.24-28.99M611.48 446.08l25.22-.14a.2.2 0 0 0 .19-.2V445a12.58 12.27 89.7 0 0-12.34-12.51h-1.08a12.58 12.27 89.7 0 0-12.2 12.65v.74a.2.2 0 0 0 .21.2M444.845 507.93a3.8 3.18 86 0 0 2.907-4.012 3.8 3.18 86 0 0-3.437-3.569 3.8 3.18 86 0 0-2.907 4.013 3.8 3.18 86 0 0 3.437 3.569M450.28 518.15l-6.67-6.65a.98.98 0 0 0-1.39 0l-.11.12a6.24 5.59-45.1 0 0-.45 8.36l.15.14a6.24 5.59-45.1 0 0 8.36-.47l.11-.11a.98.98 0 0 0 0-1.39M247.03 513.53a.33.33 0 0 0 .31.44l6.93.06a.33.33 0 0 0 .31-.43l-3.37-10.41a.33.33 0 0 0-.62-.01l-3.56 10.35M333.58 512.28l9.2-.08a.25.25 0 0 0 .25-.25v-.15a4.61 4.6-.5 0 0-4.65-4.56h-.48a4.61 4.6-.5 0 0-4.57 4.64v.15a.25.25 0 0 0 .25.25M410.98 512.28l9.56-.02a.19.19 0 0 0 .19-.19v-.09a4.76 4.57 89.9 0 0-4.57-4.75h-.8a4.76 4.57 89.9 0 0-4.57 4.77v.09a.19.19 0 0 0 .19.19M500.092 521.74a7.29 5.25 90.3 0 0 5.288-7.263 7.29 5.25 90.3 0 0-5.212-7.317 7.29 5.25 90.3 0 0-5.288 7.262 7.29 5.25 90.3 0 0 5.212 7.318M633.111 521.77a7.3 5.25 89.6 0 0 5.199-7.337 7.3 5.25 89.6 0 0-5.301-7.263 7.3 5.25 89.6 0 0-5.199 7.337 7.3 5.25 89.6 0 0 5.301 7.263" vector-effect="non-scaling-stroke"/></g><path fill="#fff" d="M0 0h900v900H0V0Zm395.71 410-.25-2.75.02-4.01q0-.49-.49-.49h-7.24q-.5 0-.5.5v3.25q0 .66-.61.41l-74.48-30.82q-.42-.18-.85 0l-96.19 39.76q-.62.25-.62.93v5.3q0 .79.73.49l95.46-39.42a2.54 2.5-44.6 0 1 1.93 0l95.58 39.41a.52.52 0 0 0 .72-.5l-.24-5.62q-.01-.41-.4-.57c-1.72-.72-12.41-4.71-12.57-5.87ZM243 444.59a.51.51 0 0 1 .51-.51l29.23-.12a.51.51 0 0 1 .51.51v31.01a.51.51 0 0 0 .5.51l7.73.16a.51.51 0 0 0 .52-.51v-64.68a.51.51 0 0 0-.52-.51l-7.73.17a.51.51 0 0 0-.5.51v24.86a.51.51 0 0 1-.51.51h-29.19a.51.51 0 0 1-.51-.51l-.05-21.72a.51.51 0 0 0-.7-.47l-7.47 2.97a.51.51 0 0 0-.32.48v58.24a.51.51 0 0 0 .51.51h7.49a.51.51 0 0 0 .51-.51l-.01-30.9Zm186.89-8.37a.39.39 0 0 1-.39-.39v-24.94a.39.39 0 0 0-.39-.39h-7.98a.39.39 0 0 0-.39.39l.02 64.72a.39.39 0 0 0 .39.39h7.96a.39.39 0 0 0 .39-.39v-31.22a.39.39 0 0 1 .39-.39h29.47a.39.39 0 0 1 .39.39v31.14a.39.39 0 0 0 .37.39l7.71.35a.39.39 0 0 0 .41-.39l.02-64.99a.39.39 0 0 0-.39-.39h-7.73a.39.39 0 0 0-.39.39v25.29a.39.39 0 0 1-.39.39l-29.47-.35Zm-34.9 39.69a.31.31 0 0 0 .29-.3l.2-55.77a.31.31 0 0 0-.19-.29l-7.71-3.18a.31.31 0 0 0-.43.28l.14 59.31a.31.31 0 0 0 .32.3l7.38-.35ZM300.2 452.5h32.84q.6 0 .63-.6c.55-12.15-2.42-23.75-16.35-26.03-19.52-3.21-28.38 16.01-25.44 32.56 3.59 20.19 25.22 22.27 40.41 14.74q.46-.22.46-.74l-.01-7.88a.43.43 0 0 0-.7-.34c-12.59 9.83-30.71 8.55-32.44-11.06q-.06-.65.6-.65Zm202.22-26.55c-33.66-4.41-33.12 57.02.92 51.1 15.92-2.77 18.95-16.85 17.63-30.78-1.05-11.07-7.34-18.85-18.55-20.32Zm35.83 5.57v-3.89q0-.63-.63-.63h-6.22q-1.35 0-1.35 1.35l.01 47.3q0 .65.65.63l6.99-.17q.53-.01.53-.54c.01-4.67-.87-34.89.88-36.67 3.53-3.59 10.37-7.12 15.18-4.27 4.08 2.42 3.66 10.91 3.67 16.13q.02 12.37.05 24.8.01.5.5.51l7.09.22q.66.02.66-.64l-.04-35.4q0-.41.26-.72c3.33-4.01 11.49-8.35 16.31-4.4 2.97 2.43 2.95 7.99 2.95 11.62q-.01 14.39.02 28.76.01.58.58.59l7.25.1a.42.42 0 0 0 .43-.42q.02-16.42-.05-31.89c-.04-8.25-2.51-16.35-11.32-17.99-6.7-1.25-13.18 2.53-17.32 7.79q-.36.46-.66-.04c-6.71-11-16.96-9.77-25.51-1.74q-.91.85-.91-.39Zm73.21 20.98h32.57q.53 0 .59-.53c1.54-15.83-6.32-29.07-23.98-25.75q-14.66 2.75-17.58 19.56c-4.65 26.81 18 38.46 40.19 27.46q.41-.2.42-.65l.28-7.67a.6.6 0 0 0-.97-.5c-11.78 9.03-32.47 8.21-32.12-11.33q.01-.59.6-.59Zm53.54-6.06c-4.94-1.3-8.31-5.62-5.22-10.08 5.15-7.44 17.8-1.66 23.65 1.48q.51.27.49-.31l-.24-7.64q-.01-.41-.38-.59c-9.18-4.54-26.42-5.83-31.46 5.21-4.07 8.92.64 17.76 10.39 19.88 4.75 1.03 14.3 1.76 15.02 8.02.57 4.9-3.17 7.1-7.57 7.64-7.83.97-12.44-2.03-18.87-5.87q-.56-.33-.56.32v8.05q0 .49.43.71c11.21 5.81 32.6 6.89 34.73-9.51 1.81-13.9-10.9-14.82-20.41-17.31ZM359.02 462.7a.33.33 0 0 1-.62 0l-13.07-35.48a.33.33 0 0 0-.31-.22h-8.16a.33.33 0 0 0-.31.45l17.61 46.18a.33.33 0 0 1 0 .24l-8.53 19.93a.33.33 0 0 0 .3.46l8.1-.01a.33.33 0 0 0 .3-.21l26.16-66.59a.33.33 0 0 0-.3-.45h-7.86a.33.33 0 0 0-.31.22l-13 35.48Zm-63.87 43.57.15-7.82q.01-.62-.6-.71l-1.73-.25q-.7-.11-.7.61l-.06 25.24q0 .56.56.59l1.85.09q.61.03.61-.58l.03-12.75q0-.56.39-.97 2.58-2.71 6.39-1.77a2.09 2.08-83.7 0 1 1.59 1.99l.18 13.47q.01.59.6.59h1.8q.62 0 .61-.62c-.17-6.07 2.8-25.26-11.15-16.81q-.53.33-.52-.3Zm156.53 9.04-5.11-5.11q-.39-.4.08-.7c12.78-8.26-5.57-16.75-8.26-6.82q-1.04 3.82 2.62 6.57.49.37-.01.72c-11.56 8.04 2.83 21.04 11.14 10.44q.39-.5.7.05 2.05 3.63 6.13 3.62a.53.53 0 0 0 .37-.91l-4.78-4.72q-.37-.36-.27-.87l1.62-8.11q.18-.88-.72-.88h-1.8q-.76 0-.78.76l-.15 5.65q-.03 1.05-.78.31Zm24.63-10.77c3.03-5.14 9.71-3.87 13.38-.31q.71.69.62-.3l-.26-2.87q-.05-.59-.57-.88-2.44-1.39-5.22-1.68c-11.05-1.16-14.71 8.49-12.54 17.51 2.95 12.26 21.32 8.91 18.16 2.91q-.25-.48-.66-.14c-11.29 9.04-18.22-5.21-12.91-14.24Zm144.958-5.114a.91.91 0 0 0-.939-.881l-1.659.052a.91.91 0 0 0-.88.938l.043 1.38a.91.91 0 0 0 .938.88l1.659-.052a.91.91 0 0 0 .88-.938l-.042-1.38ZM246.52 516.75h8.68q.54 0 .7.52l1.87 6.01q.23.74 1.01.73l2.06-.03q.67-.01.45-.64l-8.08-23.75q-.16-.45-.6-.64c-2.49-1.03-3.72-.19-4.55 2.26q-3.7 10.89-7.36 21.87a.65.64-71 0 0 .39.81c3.3 1.22 4.11-4.48 4.74-6.63q.15-.51.69-.51Zm68.283-17.31a.67.67 0 0 0-.651-.69l-2.16-.06a.67.67 0 0 0-.688.651l-.047 1.68a.67.67 0 0 0 .651.688l2.16.06a.67.67 0 0 0 .688-.65l.047-1.68Zm8.467 8.38 4.53-.36a1.15 1.15 0 0 0 1.02-1.46c-.47-1.66-3.73-.9-5.64-1.08q-.43-.04-.43-.47v-4.37q0-.67-.67-.62l-1.86.15q-.59.05-.57.65l.14 3.96q.03.78-.76.78h-.78q-.75 0-.75.75v1.05q0 .57.55.7l1.24.31q.44.11.45.57c.04 3.91-.72 10.65.96 13.66 1.83 3.27 10.15 2.56 7.67-.58q-.3-.37-.75-.22-2.18.74-4.16-.55-.49-.32-.51-.91l-.28-11.29q-.02-.62.6-.67Zm45.43 1.48a1.61 1.6-82.9 0 1 2.02-1.58q2.66.7 3.93-1.12a1.02 1.02 0 0 0-.83-1.6h-4.57q-.5 0-.5-.5v-4.56q0-.58-.57-.5l-2.09.29q-.59.08-.59.68v3.74q0 .43-.4.58l-1.48.56q-.62.23-.41.85.5 1.48 1.94 1.81.49.11.46.62c-.29 5.28-2.05 18.72 8.36 15.21q.53-.18.53-.74v-1.35q0-.95-.88-.58-2.45 1.02-4.33-.63-.42-.36-.43-.92l-.16-10.26Zm181.88-1.61 5.07-.23q.51-.02.46-.53l-.14-1.35q-.06-.58-.64-.58h-4.88q-.55 0-.52-.55l.27-4.34q.05-.71-.66-.6l-1.93.3q-.71.11-.67.84l.24 3.7q.04.58-.54.62l-1.42.11q-.58.05-.47.62l.31 1.53q.11.56.68.53l.96-.05q.46-.02.44.44c-.18 3.55-.81 11.62 1.28 14.37 1.31 1.73 7.45 3.14 7.81-.29q.09-.92-.83-.91l-3.55.03a1.54 1.54 0 0 1-1.56-1.49l-.38-11.44q-.03-.7.67-.73Zm59.59.14 4.58-.32q.5-.04.68-.52l.36-.98q.29-.77-.54-.81l-5.35-.28q-.5-.02-.46-.52l.35-3.97q.06-.68-.62-.68h-2.03q-.68 0-.66.68l.11 3.6a.83.82-11.4 0 1-.54.8c-2.91 1.06-1.89 3.15.13 2.95q.53-.06.49.48c-.4 5.39-2.03 19.08 8.31 15.46q.52-.18.52-.73v-1.45q0-.64-.6-.41-2.81 1.11-4.74-.86-.39-.4-.39-.95l-.06-10.99q0-.47.46-.5Zm-276.6 6.92h11.64a.95.95 0 0 0 .95-.92c.16-5.1-2.19-9.32-7.56-9.33-13.65-.03-11.5 26.4 6.56 18.49q.44-.19.47-.66l.16-1.99a.64.64 0 0 0-1-.59c-4.86 3.22-11.25 2.37-11.75-4.43q-.04-.57.53-.57Zm77.63 0h12.02q.38 0 .43-.38c1.12-10.01-10.9-13.8-14.88-5.35-4.58 9.72 3.22 18.74 13.42 14.15 1.52-.69 1.66-1.84 1.22-3.29q-.18-.6-.69-.24c-4.69 3.25-11.66 2.59-12.09-4.29q-.04-.6.57-.6Zm88.767 9.748a10.06 8.57 91.1 0 0 8.761-9.894 10.06 8.57 91.1 0 0-8.375-10.222 10.06 8.57 91.1 0 0-8.761 9.893 10.06 8.57 91.1 0 0 8.375 10.223ZM515.15 506.2q-.69-1.93-2.9-1.04-.43.18-.43.64l-.1 17.35q0 .68.67.73l1.94.16q.67.05.67-.62v-12.9q0-.44.3-.76c1.94-2.08 7.6-3.78 8.03.68q.68 6.92.27 12.9-.05.66.61.66h1.84q.69 0 .69-.68.03-5.79.01-11.57c-.02-6.53-5.58-9.6-10.74-5.32q-.6.5-.86-.23Zm117.905 18.42a10.13 8.51 89.8 0 0 8.475-10.16 10.13 8.51 89.8 0 0-8.545-10.1 10.13 8.51 89.8 0 0-8.475 10.16 10.13 8.51 89.8 0 0 8.545 10.1Zm-344.475-4.96c-14 10.1-13.87-20.58.21-10.42q.59.43.52-.29l-.22-2.27q-.05-.56-.57-.81c-17.66-8.4-18.44 24.47-1.11 17.65 1.68-.66 1.99-1.98 1.78-3.6q-.09-.64-.61-.26Zm73.05.02c-3.6 3.23-9.1 2.45-9.96-2.88-1.11-6.79 3.4-13.06 10.17-7.42q.87.73.72-.4l-.32-2.44q-.08-.61-.65-.84c-16.34-6.58-18.78 20.6-2.65 18.43 2.36-.32 4.47-1.46 3.36-4.3q-.22-.56-.67-.15Zm177.93 1.3q-4.81 1.72-8.76-1.46-.55-.44-.55.27v2.24q0 .62.55.9 5.88 3 10.7-.22c2.32-1.55 2.87-4.43 1.56-6.77-1.38-2.45-4.96-2.86-7.57-3.65-2.69-.81-2.71-3.97.06-4.68q3.57-.93 6.87 1.41a.4.4 0 0 0 .62-.22c1.5-5.47-11.01-5.94-12.74.51q-.71 2.67 1.41 4.65c2.69 2.49 8.7 1.18 8.88 5.5a1.54 1.54 0 0 1-1.03 1.52Zm58.3-13.58q2.55-.01 4.77 1.64.53.39.66-.25c.45-2.09-.77-3.27-2.78-3.73-16.53-3.8-14.32 25.11 1.54 18.34 1.61-.69 1.87-2.08 1.15-3.54q-.25-.51-.69-.15c-10.57 8.51-14.32-12.26-4.65-12.31Zm50.14-1.17q-.78-1.77-2.78-1.1-.47.16-.47.65v17.58q0 .54.54.57l1.81.09a.63.63 0 0 0 .67-.63l.06-12.65q0-.61.42-1.05 2.78-2.94 6.56-1.76.52.16.78.64c1.75 3.28.91 10.83.91 14.7q.01.72.72.72h1.58q.71 0 .71-.72.04-6.61-.22-13.19c-.24-6.09-6.53-6.67-10.44-3.63q-.56.43-.85-.22Zm-381.29.71.29-1.17q.24-.95-.73-.84l-2.11.24q-.58.07-.57.66l.23 17.71q0 .48.48.47l1.81-.03q.64-.01.64-.65v-12.29q0-.5.38-.83 2.55-2.25 5.96-1.91.43.04.44-.39l.05-2.38a.45.45 0 0 0-.46-.46q-3.32.06-5.66 2.3-1.12 1.07-.75-.43Zm47.99-1.2a.69.69 0 0 0-.69-.69h-1.82a.69.69 0 0 0-.69.69v17.58a.69.69 0 0 0 .69.69h1.82a.69.69 0 0 0 .69-.69v-17.58Zm74.05 16.75v.84q0 .63.64.65l1.67.03q.51.01.51-.5l.09-17.83q0-.68-.67-.68h-1.77q-.52 0-.52.52l.07 12.85q.01.46-.32.79c-2.16 2.2-7.5 3.97-8.04-.91q-.69-6.23-.32-12.43.03-.44-.37-.64c-2.22-1.08-2.98.21-2.88 2.27.19 4.01-.6 11.43 1.24 14.44 2.26 3.68 6.81 2.71 9.91.24q.76-.61.76.36Zm10.46-15.26.35-1.55q.17-.8-.65-.73l-1.76.18q-.65.06-.65.71v17.5q0 .65.65.65h1.7q.65 0 .65-.65V511q0-.56.42-.92 2.45-2.09 5.83-1.75.66.07.68-.59l.09-2.1q.03-.7-.67-.66-3.49.19-5.84 2.67-1.15 1.21-.8-.42Zm162.29-.2q-.14-.65.39-1.04.79-.59-.19-.72l-2.49-.32q-.69-.09-.69.6l-.06 17.81q0 .64.64.64h1.73q.64 0 .64-.64l.1-12.28q0-.65.5-1.06 2.38-1.96 5.48-1.47.8.13.8-.68v-2.21q0-.71-.72-.66-3.05.24-5.21 2.31-.72.69-.92-.28Zm21 15.22v.99q0 .68.67.7l1.66.06q.67.03.67-.64v-17.47q0-.62-.61-.7l-1.7-.23q-.69-.09-.69.61v12.94q0 .41-.29.7-2.73 2.78-6.52 1.81-.52-.13-.75-.61c-1.72-3.72-1.02-10.53-1.11-14.77q-.01-.64-.65-.64h-1.69q-.62 0-.64.61-.4 10.16.22 13.57c1.03 5.64 7.2 6.96 10.78 2.83q.65-.76.65.24Zm38.775-16.477a.76.76 0 0 0-.758-.762l-1.68-.002a.76.76 0 0 0-.762.758l-.03 17.46a.76.76 0 0 0 .758.762l1.68.002a.76.76 0 0 0 .762-.758l.03-17.46Z"/><path fill="#4d4949" d="m395.46 407.25-6.02.19a.41.41 0 0 0-.15.79q3.25 1.42 6.42 1.77c.16 1.16 10.85 5.15 12.57 5.87q.39.16.4.57l.24 5.62a.52.52 0 0 1-.72.5l-95.58-39.41a2.54 2.5-44.6 0 0-1.93 0l-95.46 39.42q-.73.3-.73-.49v-5.3q0-.68.62-.93l96.19-39.76q.43-.18.85 0l74.48 30.82q.61.25.61-.41v-3.25q0-.5.5-.5h7.24q.49 0 .49.49l-.02 4.01Z"/><path fill="#1f1a17" d="m395.46 407.25.25 2.75q-3.17-.35-6.42-1.77a.41.41 0 0 1 .15-.79l6.02-.19ZM243 444.59l.01 30.9a.51.51 0 0 1-.51.51h-7.49a.51.51 0 0 1-.51-.51v-58.24a.51.51 0 0 1 .32-.48l7.47-2.97a.51.51 0 0 1 .7.47l.05 21.72a.51.51 0 0 0 .51.51h29.19a.51.51 0 0 0 .51-.51v-24.86a.51.51 0 0 1 .5-.51l7.73-.17a.51.51 0 0 1 .52.51v64.68a.51.51 0 0 1-.52.51l-7.73-.16a.51.51 0 0 1-.5-.51v-31.01a.51.51 0 0 0-.51-.51l-29.23.12a.51.51 0 0 0-.51.51Z"/><path fill="#4d4949" d="m429.89 436.22 29.47.35a.39.39 0 0 0 .39-.39v-25.29a.39.39 0 0 1 .39-.39h7.73a.39.39 0 0 1 .39.39l-.02 64.99a.39.39 0 0 1-.41.39l-7.71-.35a.39.39 0 0 1-.37-.39v-31.14a.39.39 0 0 0-.39-.39h-29.47a.39.39 0 0 0-.39.39v31.22a.39.39 0 0 1-.39.39h-7.96a.39.39 0 0 1-.39-.39l-.02-64.72a.39.39 0 0 1 .39-.39h7.98a.39.39 0 0 1 .39.39v24.94a.39.39 0 0 0 .39.39Z"/><path fill="#1f1a17" d="m394.99 475.91-7.38.35a.31.31 0 0 1-.32-.3l-.14-59.31a.31.31 0 0 1 .43-.28l7.71 3.18a.31.31 0 0 1 .19.29l-.2 55.77a.31.31 0 0 1-.29.3ZM299.6 453.15c1.73 19.61 19.85 20.89 32.44 11.06a.43.43 0 0 1 .7.34l.01 7.88q0 .52-.46.74c-15.19 7.53-36.82 5.45-40.41-14.74-2.94-16.55 5.92-35.77 25.44-32.56 13.93 2.28 16.9 13.88 16.35 26.03q-.03.6-.63.6H300.2q-.66 0-.6.65Zm.8-7.04 25.16-.22a.26.26 0 0 0 .26-.26l-.01-.69a12.57 12.44 89.5 0 0-12.55-12.46h-.8a12.57 12.44 89.5 0 0-12.33 12.68l.01.69a.26.26 0 0 0 .26.26Z"/><path fill="#4d4949" d="M503.34 477.05c-34.04 5.92-34.58-55.51-.92-51.1 11.21 1.47 17.5 9.25 18.55 20.32 1.32 13.93-1.71 28.01-17.63 30.78Zm-.33-43.8c-17.88-3.85-20.34 21.43-13.78 31.53 5.39 8.3 18.81 7.06 22.02-2.54 2.68-8.02 3.25-26.52-8.24-28.99ZM539.16 431.91c8.55-8.03 18.8-9.26 25.51 1.74q.3.5.66.04c4.14-5.26 10.62-9.04 17.32-7.79 8.81 1.64 11.28 9.74 11.32 17.99q.07 15.47.05 31.89a.42.42 0 0 1-.43.42l-7.25-.1q-.57-.01-.58-.59-.03-14.37-.02-28.76c0-3.63.02-9.19-2.95-11.62-4.82-3.95-12.98.39-16.31 4.4q-.26.31-.26.72l.04 35.4q0 .66-.66.64l-7.09-.22q-.49-.01-.5-.51-.03-12.43-.05-24.8c-.01-5.22.41-13.71-3.67-16.13-4.81-2.85-11.65.68-15.18 4.27-1.75 1.78-.87 32-.88 36.67q0 .53-.53.54l-6.99.17q-.65.02-.65-.63l-.01-47.3q0-1.35 1.35-1.35h6.22q.63 0 .63.63v3.89q0 1.24.91.39ZM610.86 453.09c-.35 19.54 20.34 20.36 32.12 11.33a.6.6 0 0 1 .97.5l-.28 7.67q-.01.45-.42.65c-22.19 11-44.84-.65-40.19-27.46q2.92-16.81 17.58-19.56c17.66-3.32 25.52 9.92 23.98 25.75q-.06.53-.59.53h-32.57q-.59 0-.6.59Zm.62-7.01 25.22-.14a.2.2 0 0 0 .19-.2V445a12.58 12.27 89.7 0 0-12.34-12.51h-1.08a12.58 12.27 89.7 0 0-12.2 12.65v.74a.2.2 0 0 0 .21.2ZM659.78 436.36c-3.09 4.46.28 8.78 5.22 10.08 9.51 2.49 22.22 3.41 20.41 17.31-2.13 16.4-23.52 15.32-34.73 9.51q-.43-.22-.43-.71v-8.05q0-.65.56-.32c6.43 3.84 11.04 6.84 18.87 5.87 4.4-.54 8.14-2.74 7.57-7.64-.72-6.26-10.27-6.99-15.02-8.02-9.75-2.12-14.46-10.96-10.39-19.88 5.04-11.04 22.28-9.75 31.46-5.21q.37.18.38.59l.24 7.64q.02.58-.49.31c-5.85-3.14-18.5-8.92-23.65-1.48Z"/><path fill="#1f1a17" d="m359.02 462.7 13-35.48a.33.33 0 0 1 .31-.22h7.86a.33.33 0 0 1 .3.45l-26.16 66.59a.33.33 0 0 1-.3.21l-8.1.01a.33.33 0 0 1-.3-.46l8.53-19.93a.33.33 0 0 0 0-.24l-17.61-46.18a.33.33 0 0 1 .31-.45h8.16a.33.33 0 0 1 .31.22l13.07 35.48a.33.33 0 0 0 .62 0Z"/><path fill="#fff" d="M300.4 446.11a.26.26 0 0 1-.26-.26l-.01-.69a12.57 12.44 89.5 0 1 12.33-12.68h.8a12.57 12.44 89.5 0 1 12.55 12.46l.01.69a.26.26 0 0 1-.26.26l-25.16.22ZM611.48 446.08a.2.2 0 0 1-.21-.2v-.74a12.58 12.27 89.7 0 1 12.2-12.65h1.08A12.58 12.27 89.7 0 1 636.89 445v.74a.2.2 0 0 1-.19.2l-25.22.14ZM489.23 464.78c-6.56-10.1-4.1-35.38 13.78-31.53 11.49 2.47 10.92 20.97 8.24 28.99-3.21 9.6-16.63 10.84-22.02 2.54Z"/><path fill="#4d4949" d="M295.67 506.57c13.95-8.45 10.98 10.74 11.15 16.81q.01.62-.61.62h-1.8q-.59 0-.6-.59l-.18-13.47a2.09 2.08-83.7 0 0-1.59-1.99q-3.81-.94-6.39 1.77-.39.41-.39.97l-.03 12.75q0 .61-.61.58l-1.85-.09q-.56-.03-.56-.59l.06-25.24q0-.72.7-.61l1.73.25q.61.09.6.71l-.15 7.82q-.01.63.52.3ZM452.46 515l.15-5.65q.02-.76.78-.76h1.8q.9 0 .72.88l-1.62 8.11q-.1.51.27.87l4.78 4.72a.53.53 0 0 1-.37.91q-4.08.01-6.13-3.62-.31-.55-.7-.05c-8.31 10.6-22.7-2.4-11.14-10.44q.5-.35.01-.72-3.66-2.75-2.62-6.57c2.69-9.93 21.04-1.44 8.26 6.82q-.47.3-.08.7l5.11 5.11q.75.74.78-.31Zm-7.615-7.07a3.8 3.18 86 0 0 2.907-4.012 3.8 3.18 86 0 0-3.437-3.569 3.8 3.18 86 0 0-2.907 4.013 3.8 3.18 86 0 0 3.437 3.569Zm5.435 10.22-6.67-6.65a.98.98 0 0 0-1.39 0l-.11.12a6.24 5.59-45.1 0 0-.45 8.36l.15.14a6.24 5.59-45.1 0 0 8.36-.47l.11-.11a.98.98 0 0 0 0-1.39ZM489.69 504.23c-3.67-3.56-10.35-4.83-13.38.31-5.31 9.03 1.62 23.28 12.91 14.24q.41-.34.66.14c3.16 6-15.21 9.35-18.16-2.91-2.17-9.02 1.49-18.67 12.54-17.51q2.78.29 5.22 1.68.52.29.57.88l.26 2.87q.09.99-.62.3Z"/><rect width="3.48" height="3.2" x="-1.74" y="-1.6" fill="#4d4949" rx=".91" transform="rotate(-1.8 16229.371 -19469.182)"/><path fill="#4d4949" d="M245.83 517.26c-.63 2.15-1.44 7.85-4.74 6.63a.65.64-71 0 1-.39-.81q3.66-10.98 7.36-21.87c.83-2.45 2.06-3.29 4.55-2.26q.44.19.6.64l8.08 23.75q.22.63-.45.64l-2.06.03q-.78.01-1.01-.73l-1.87-6.01q-.16-.52-.7-.52h-8.68q-.54 0-.69.51Zm1.2-3.73a.33.33 0 0 0 .31.44l6.93.06a.33.33 0 0 0 .31-.43l-3.37-10.41a.33.33 0 0 0-.62-.01l-3.56 10.35Z"/><rect width="3.5" height="3.02" x="-1.75" y="-1.51" fill="#4d4949" rx=".67" transform="rotate(1.6 -17755.488 11458.948)"/><path fill="#4d4949" d="m322.67 508.49.28 11.29q.02.59.51.91 1.98 1.29 4.16.55.45-.15.75.22c2.48 3.14-5.84 3.85-7.67.58-1.68-3.01-.92-9.75-.96-13.66q-.01-.46-.45-.57l-1.24-.31q-.55-.13-.55-.7v-1.05q0-.75.75-.75h.78q.79 0 .76-.78l-.14-3.96q-.02-.6.57-.65l1.86-.15q.67-.05.67.62v4.37q0 .43.43.47c1.91.18 5.17-.58 5.64 1.08a1.15 1.15 0 0 1-1.02 1.46l-4.53.36q-.62.05-.6.67ZM368.7 509.3l.16 10.26q.01.56.43.92 1.88 1.65 4.33.63.88-.37.88.58v1.35q0 .56-.53.74c-10.41 3.51-8.65-9.93-8.36-15.21q.03-.51-.46-.62-1.44-.33-1.94-1.81-.21-.62.41-.85l1.48-.56q.4-.15.4-.58v-3.74q0-.6.59-.68l2.09-.29q.57-.08.57.5v4.56q0 .5.5.5h4.57a1.02 1.02 0 0 1 .83 1.6q-1.27 1.82-3.93 1.12a1.61 1.6-82.9 0 0-2.02 1.58ZM549.91 508.42l.38 11.44a1.54 1.54 0 0 0 1.56 1.49l3.55-.03q.92-.01.83.91c-.36 3.43-6.5 2.02-7.81.29-2.09-2.75-1.46-10.82-1.28-14.37q.02-.46-.44-.44l-.96.05q-.57.03-.68-.53l-.31-1.53q-.11-.57.47-.62l1.42-.11q.58-.04.54-.62l-.24-3.7q-.04-.73.67-.84l1.93-.3q.71-.11.66.6l-.27 4.34q-.03.55.52.55h4.88q.58 0 .64.58l.14 1.35q.05.51-.46.53l-5.07.23q-.7.03-.67.73ZM609.71 508.33l.06 10.99q0 .55.39.95 1.93 1.97 4.74.86.6-.23.6.41v1.45q0 .55-.52.73c-10.34 3.62-8.71-10.07-8.31-15.46q.04-.54-.49-.48c-2.02.2-3.04-1.89-.13-2.95a.83.82-11.4 0 0 .54-.8l-.11-3.6q-.02-.68.66-.68h2.03q.68 0 .62.68l-.35 3.97q-.04.5.46.52l5.35.28q.83.04.54.81l-.36.98q-.18.48-.68.52l-4.58.32q-.46.03-.46.5Z"/><ellipse fill="#fff" rx="3.8" ry="3.18" transform="rotate(86 -48.022 490.447)"/><path fill="#fff" d="m247.03 513.53 3.56-10.35a.33.33 0 0 1 .62.01l3.37 10.41a.33.33 0 0 1-.31.43l-6.93-.06a.33.33 0 0 1-.31-.44Z"/><path fill="#4d4949" d="M333.04 515.32c.5 6.8 6.89 7.65 11.75 4.43a.64.64 0 0 1 1 .59l-.16 1.99q-.03.47-.47.66c-18.06 7.91-20.21-18.52-6.56-18.49 5.37.01 7.72 4.23 7.56 9.33a.95.95 0 0 1-.95.92h-11.64q-.57 0-.53.57Zm.54-3.04 9.2-.08a.25.25 0 0 0 .25-.25v-.15a4.61 4.6-.5 0 0-4.65-4.56h-.48a4.61 4.6-.5 0 0-4.57 4.64v.15a.25.25 0 0 0 .25.25ZM410.63 515.35c.43 6.88 7.4 7.54 12.09 4.29q.51-.36.69.24c.44 1.45.3 2.6-1.22 3.29-10.2 4.59-18-4.43-13.42-14.15 3.98-8.45 16-4.66 14.88 5.35q-.05.38-.43.38H411.2q-.61 0-.57.6Zm.35-3.07 9.56-.02a.19.19 0 0 0 .19-.19v-.09a4.76 4.57 89.9 0 0-4.57-4.75h-.8a4.76 4.57 89.9 0 0-4.57 4.77v.09a.19.19 0 0 0 .19.19ZM499.967 524.498a10.06 8.57 91.1 0 1-8.375-10.223 10.06 8.57 91.1 0 1 8.761-9.893 10.06 8.57 91.1 0 1 8.375 10.223 10.06 8.57 91.1 0 1-8.761 9.893Zm.125-2.758a7.29 5.25 90.3 0 0 5.288-7.263 7.29 5.25 90.3 0 0-5.212-7.317 7.29 5.25 90.3 0 0-5.288 7.262 7.29 5.25 90.3 0 0 5.212 7.318Z"/><path fill="#4d4949" d="M516.01 506.43c5.16-4.28 10.72-1.21 10.74 5.32q.02 5.78-.01 11.57 0 .68-.69.68h-1.84q-.66 0-.61-.66.41-5.98-.27-12.9c-.43-4.46-6.09-2.76-8.03-.68q-.3.32-.3.76v12.9q0 .67-.67.62l-1.94-.16q-.67-.05-.67-.73l.1-17.35q0-.46.43-.64 2.21-.89 2.9 1.04.26.73.86.23ZM633.055 524.62a10.13 8.51 89.8 0 1-8.545-10.1 10.13 8.51 89.8 0 1 8.475-10.16 10.13 8.51 89.8 0 1 8.545 10.1 10.13 8.51 89.8 0 1-8.475 10.16Zm.056-2.85a7.3 5.25 89.6 0 0 5.199-7.337 7.3 5.25 89.6 0 0-5.301-7.263 7.3 5.25 89.6 0 0-5.199 7.337 7.3 5.25 89.6 0 0 5.301 7.263ZM288.79 509.24c-14.08-10.16-14.21 20.52-.21 10.42q.52-.38.61.26c.21 1.62-.1 2.94-1.78 3.6-17.33 6.82-16.55-26.05 1.11-17.65q.52.25.57.81l.22 2.27q.07.72-.52.29ZM351.67 516.8c.86 5.33 6.36 6.11 9.96 2.88q.45-.41.67.15c1.11 2.84-1 3.98-3.36 4.3-16.13 2.17-13.69-25.01 2.65-18.43q.57.23.65.84l.32 2.44q.15 1.13-.72.4c-6.77-5.64-11.28.63-10.17 7.42ZM539.56 520.98a1.54 1.54 0 0 0 1.03-1.52c-.18-4.32-6.19-3.01-8.88-5.5q-2.12-1.98-1.41-4.65c1.73-6.45 14.24-5.98 12.74-.51a.4.4 0 0 1-.62.22q-3.3-2.34-6.87-1.41c-2.77.71-2.75 3.87-.06 4.68 2.61.79 6.19 1.2 7.57 3.65 1.31 2.34.76 5.22-1.56 6.77q-4.82 3.22-10.7.22-.55-.28-.55-.9v-2.24q0-.71.55-.27 3.95 3.18 8.76 1.46ZM597.86 507.4c-9.67.05-5.92 20.82 4.65 12.31q.44-.36.69.15c.72 1.46.46 2.85-1.15 3.54-15.86 6.77-18.07-22.14-1.54-18.34 2.01.46 3.23 1.64 2.78 3.73q-.13.64-.66.25-2.22-1.65-4.77-1.64Z"/><path fill="#4d4949" d="M648.85 506.45c3.91-3.04 10.2-2.46 10.44 3.63q.26 6.58.22 13.19 0 .72-.71.72h-1.58q-.71 0-.72-.72c0-3.87.84-11.42-.91-14.7q-.26-.48-.78-.64-3.78-1.18-6.56 1.76-.42.44-.42 1.05l-.06 12.65a.63.63 0 0 1-.67.63l-1.81-.09q-.54-.03-.54-.57v-17.58q0-.49.47-.65 2-.67 2.78 1.1.29.65.85.22ZM267.46 507.37q2.34-2.24 5.66-2.3a.45.45 0 0 1 .46.46l-.05 2.38q-.01.43-.44.39-3.41-.34-5.96 1.91-.38.33-.38.83v12.29q0 .64-.64.65l-1.81.03q-.48.01-.48-.47l-.23-17.71q-.01-.59.57-.66l2.11-.24q.97-.11.73.84l-.29 1.17q-.37 1.5.75.43Z"/><rect width="3.2" height="18.96" x="311.5" y="505.05" fill="#4d4949" rx=".69"/><path fill="#4d4949" d="M387.99 522.13c-3.1 2.47-7.65 3.44-9.91-.24-1.84-3.01-1.05-10.43-1.24-14.44-.1-2.06.66-3.35 2.88-2.27q.4.2.37.64-.37 6.2.32 12.43c.54 4.88 5.88 3.11 8.04.91q.33-.33.32-.79l-.07-12.85q0-.52.52-.52h1.77q.67 0 .67.68l-.09 17.83q0 .51-.51.5l-1.67-.03q-.64-.02-.64-.65v-.84q0-.97-.76-.36ZM400.01 507.65q2.35-2.48 5.84-2.67.7-.04.67.66l-.09 2.1q-.02.66-.68.59-3.38-.34-5.83 1.75-.42.36-.42.92v12.34q0 .65-.65.65h-1.7q-.65 0-.65-.65v-17.5q0-.65.65-.71l1.76-.18q.82-.07.65.73l-.35 1.55q-.35 1.63.8.42ZM562.42 507.31q2.16-2.07 5.21-2.31.72-.05.72.66v2.21q0 .81-.8.68-3.1-.49-5.48 1.47-.5.41-.5 1.06l-.1 12.28q0 .64-.64.64h-1.73q-.64 0-.64-.64l.06-17.81q0-.69.69-.6l2.49.32q.98.13.19.72-.53.39-.39 1.04.2.97.92.28ZM581.85 522.01c-3.58 4.13-9.75 2.81-10.78-2.83q-.62-3.41-.22-13.57.02-.61.64-.61h1.69q.64 0 .65.64c.09 4.24-.61 11.05 1.11 14.77q.23.48.75.61 3.79.97 6.52-1.81.29-.29.29-.7v-12.94q0-.7.69-.61l1.7.23q.61.08.61.7v17.47q0 .67-.67.64l-1.66-.06q-.67-.02-.67-.7v-.99q0-1-.65-.24Z"/><rect width="3.2" height="18.98" x="-1.6" y="-9.49" fill="#4d4949" rx=".76" transform="rotate(.1 -294476.88 355296.187)"/><path fill="#fff" d="M333.58 512.28a.25.25 0 0 1-.25-.25v-.15a4.61 4.6-.5 0 1 4.57-4.64h.48a4.61 4.6-.5 0 1 4.65 4.56v.15a.25.25 0 0 1-.25.25l-9.2.08ZM410.98 512.28a.19.19 0 0 1-.19-.19V512a4.76 4.57 89.9 0 1 4.57-4.77h.8a4.76 4.57 89.9 0 1 4.57 4.75v.09a.19.19 0 0 1-.19.19l-9.56.02Z"/><ellipse fill="#fff" rx="7.3" ry="5.25" transform="rotate(89.6 57.493 575.983)"/><ellipse fill="#fff" rx="7.29" ry="5.25" transform="rotate(90.3 -5.817 505.984)"/><path fill="#fff" d="M450.28 518.15a.98.98 0 0 1 0 1.39l-.11.11a6.24 5.59-45.1 0 1-8.36.47l-.15-.14a6.24 5.59-45.1 0 1 .45-8.36l.11-.12a.98.98 0 0 1 1.39 0l6.67 6.65Z"/></svg>